<?xml version="1.0" encoding="utf-8"?>
<svg xmlns="http://www.w3.org/2000/svg" viewBox="0 0 500 500" width="500px" height="500px"><g id="Layer_4" transform="matrix(1, 0, 0, 1, -141.210159, -9.307951)"><path class="cls-2" d="M 181.691 324.939 L 181.691 320.119 L 190.141 320.119 L 190.141 178.119 L 181.691 178.119 L 181.691 173.299 L 228.151 173.299 L 228.151 178.119 L 219.701 178.119 L 219.701 320.119 L 228.151 320.119 L 228.151 324.939 L 181.691 324.939 Z M 250.401 324.939 L 220.181 244.299 L 262.421 178.119 L 248.121 178.119 L 248.121 173.299 L 278.341 173.299 L 278.341 178.119 L 269.241 178.119 L 241.101 222.369 L 280.121 320.119 L 284.671 320.119 L 284.671 324.939 L 250.391 324.939 L 250.401 324.939 Z" style="stroke-width: 0px; fill: rgb(255, 255, 255);" id="object-0"/><path class="cls-2" d="M 387.361 249.119 C 387.361 291.189 369.331 328.449 335.541 328.449 C 301.751 328.449 283.721 291.199 283.721 249.119 C 283.721 207.039 301.751 169.789 335.541 169.789 C 369.331 169.789 387.361 207.039 387.361 249.119 Z M 335.531 174.619 C 320.751 174.619 310.181 192.809 310.181 249.999 C 310.181 307.189 320.751 323.629 335.531 323.629 C 350.311 323.629 360.781 306.319 360.781 249.119 C 360.781 191.919 350.311 174.609 335.531 174.609 L 335.531 174.619 Z" style="stroke-width: 0px; fill: rgb(255, 255, 255);" id="object-1"/><path class="cls-3" d="M 443.241 178.119 L 436.901 178.119 L 436.901 245.209 L 470.671 245.209 C 470.391 192.919 465.971 178.119 443.231 178.119 L 443.241 178.119 Z" style="fill: none; stroke-width: 0px;" id="object-2"/><path class="cls-3" d="M 436.911 320.119 L 441.301 320.119 C 464.561 320.119 470.551 308.209 470.701 253.029 L 436.921 253.029 L 436.921 320.119 L 436.911 320.119 Z" style="fill: none; stroke-width: 0px;" id="object-3"/><path class="cls-1" d="M 436.911 178.119 L 443.251 178.119 C 465.991 178.119 470.411 192.919 470.691 245.209 L 498.741 245.209 C 497.971 202.809 484.401 173.299 448.621 173.299 L 398.911 173.299 L 398.911 178.119 L 407.361 178.119 L 407.361 246.089 L 436.931 246.089 L 436.931 178.119 L 436.911 178.119 Z" style="stroke-width: 0px; fill: rgb(255, 255, 255);" id="object-4"/><path class="cls-1" d="M 441.291 320.119 L 436.901 320.119 L 436.901 253.029 L 407.331 253.029 L 407.331 320.119 L 398.881 320.119 L 398.881 324.939 L 446.641 324.939 C 480.531 324.939 497.721 295.429 498.701 253.029 L 470.671 253.029 C 470.521 308.209 464.541 320.119 441.271 320.119 L 441.291 320.119 Z" style="stroke-width: 0px; fill: rgb(255, 255, 255);" id="object-5"/><path class="cls-4" d="M 608.721 246.089 L 578.781 246.089 L 580.661 253.909 L 608.721 253.909 C 608.721 253.909 652.501 249.999 608.721 246.089 L 608.721 246.089 Z" style="fill: rgb(127, 25, 23); stroke-width: 0px;" id="object-6"/><polygon class="cls-3" points="527.941 246.089 549.961 246.089 539.451 200.039 527.941 246.089" style="fill: none; stroke-width: 0px;" id="object-7"/><polygon class="cls-1" points="538.721 202.939 548.731 246.459 578.771 246.089 561.051 172.429 542.691 172.429 523.521 246.089 527.941 246.089 538.721 202.939" style="stroke-width: 0px; fill: rgb(255, 255, 255);" id="object-8"/><path class="cls-4" d="M 498.721 246.089 C 498.741 247.379 498.631 248.679 498.631 249.999 C 498.631 251.319 498.731 252.589 498.701 253.879 L 521.751 253.909 L 523.531 246.089 L 498.721 246.089 Z" style="fill: rgb(127, 25, 23); stroke-width: 0px;" id="object-9"/><polygon class="cls-4" points="525.991 253.909 551.151 253.909 549.401 246.089 527.901 246.089 525.991 253.909" style="fill: rgb(127, 25, 23); stroke-width: 0px;" id="object-10"/><polygon class="cls-4" points="527.941 246.089 523.521 246.089 521.491 253.909 525.991 253.909 527.941 246.089" style="fill: rgb(127, 25, 23); stroke-width: 0px;" id="object-11"/><polygon class="cls-2" points="548.581 245.889 550.581 253.909 580.651 253.909 578.771 246.089 548.581 245.889" style="stroke-width: 0px; fill: rgb(255, 255, 255);" id="object-12"/><path class="cls-1" d="M 525.991 253.909 L 521.491 253.909 L 504.031 320.999 L 495.911 320.999 L 495.911 325.819 L 522.551 325.819 L 522.551 320.999 L 508.581 320.999 C 514.381 298.639 520.191 276.269 525.991 253.909 L 525.991 253.909 Z" style="stroke-width: 0px; fill: rgb(255, 255, 255);" id="object-13"/><path class="cls-4" d="M 280.401 246.089 C 280.401 246.089 237.211 249.999 280.401 253.909 L 407.341 253.909 L 407.341 246.089 L 280.401 246.089 Z" style="fill: rgb(127, 25, 23); stroke-width: 0px;" id="object-14"/><path class="cls-4" d="M 436.911 253.909 L 470.691 253.909 C 470.691 253.219 470.691 252.549 470.691 251.839 C 470.691 249.869 470.691 247.959 470.671 246.089 L 436.901 246.089 L 436.901 253.909 L 436.911 253.909 Z" style="fill: rgb(127, 25, 23); stroke-width: 0px;" id="object-15"/><path class="cls-2" d="M 498.731 245.209 L 470.681 245.209 C 470.691 247.079 470.701 248.989 470.701 250.959 C 470.701 251.669 470.701 252.329 470.701 253.029 L 498.731 253.029 C 498.761 251.739 498.781 250.439 498.781 249.119 C 498.781 247.799 498.771 246.499 498.741 245.209 L 498.731 245.209 Z" style="stroke-width: 0px; fill: rgb(255, 255, 255);" id="object-16"/><rect class="cls-4" x="407.341" y="246.089" width="29.57" height="7.82" style="fill: rgb(127, 25, 23); stroke-width: 0px;" id="object-17"/><path class="cls-1" d="M 596.791 320.999 L 580.651 253.909 L 550.581 253.909 C 555.631 276.269 561.251 298.639 566.301 320.999 L 553.411 320.999 L 553.411 325.819 L 603.771 325.819 L 603.771 320.999 L 596.791 320.999 Z" style="stroke-width: 0px; fill: rgb(255, 255, 255);" id="object-18"/><path class="cls-4" d="M 332.001 162.419 L 332.001 337.569 C 332.001 339.969 332.221 342.359 332.691 344.699 C 333.731 349.889 335.861 356.759 338.371 344.449 C 338.851 342.099 339.071 339.699 339.071 337.299 L 339.071 162.439 C 339.071 159.909 338.831 157.379 338.301 154.919 C 337.201 149.869 335.071 143.559 332.681 155.379 C 332.211 157.689 332.001 160.059 332.001 162.429 L 332.001 162.419 Z" style="fill: rgb(127, 25, 23); stroke-width: 0px;" id="object-19"/></g><image src="/logo.png" alt="KODA Logo" height="40"/></svg>